<?xml version="1.0" encoding="UTF-8" standalone="no"?>
<!-- Create a custom map style: https://studio.mapbox.com -->

<svg
   xmlns:dc="http://purl.org/dc/elements/1.1/"
   xmlns:cc="http://creativecommons.org/ns#"
   xmlns:rdf="http://www.w3.org/1999/02/22-rdf-syntax-ns#"
   xmlns:svg="http://www.w3.org/2000/svg"
   xmlns="http://www.w3.org/2000/svg"
   xmlns:sodipodi="http://sodipodi.sourceforge.net/DTD/sodipodi-0.dtd"
   xmlns:inkscape="http://www.inkscape.org/namespaces/inkscape"
   id="marker"
   data-name="marker"
   width="20"
   height="28"
   viewBox="0 0 20 28"
   version="1.1"
   sodipodi:docname="mapbox-marker-icon-blue.svg"
   inkscape:version="0.92.5 (2060ec1f9f, 2020-04-08)">
  <metadata
     id="metadata17">
    <rdf:RDF>
      <cc:Work
         rdf:about="">
        <dc:format>image/svg+xml</dc:format>
        <dc:type
           rdf:resource="http://purl.org/dc/dcmitype/StillImage" />
        <dc:title></dc:title>
      </cc:Work>
    </rdf:RDF>
  </metadata>
  <defs
     id="defs15" />
  <sodipodi:namedview
     pagecolor="#ffffff"
     bordercolor="#666666"
     borderopacity="1"
     objecttolerance="10"
     gridtolerance="10"
     guidetolerance="10"
     inkscape:pageopacity="0"
     inkscape:pageshadow="2"
     inkscape:window-width="1920"
     inkscape:window-height="1051"
     id="namedview13"
     showgrid="false"
     inkscape:zoom="4.9166667"
     inkscape:cx="-23.966102"
     inkscape:cy="24"
     inkscape:window-x="-9"
     inkscape:window-y="-9"
     inkscape:window-maximized="1"
     inkscape:current-layer="icon" />
  <g
     id="mapbox-marker-icon"
     transform="translate(0,-20)">
    <g
       id="icon">
      <g
         id="mask"
         style="opacity:0.3">
        <g
           id="group" />
      </g>
      <path
         id="color"
         d="m 19.25,30.4 a 13.0663,13.0663 0 0 1 -1.4607,5.2235 41.5281,41.5281 0 0 1 -3.2459,5.5483 c -1.1829,1.7369 -2.3662,3.2784 -3.2541,4.3859 -0.4438,0.5536 -0.8135,0.9984 -1.0721,1.3046 -0.0844,0.1 -0.157,0.1852 -0.2164,0.2545 C 9.9408,47.0468 9.8683,46.9604 9.7835,46.859 9.5248,46.5502 9.1551,46.1019 8.7112,45.5443 7.8233,44.4289 6.6398,42.8779 5.4569,41.1343 A 42.2677,42.2677 0 0 1 2.2106,35.5808 12.978,12.978 0 0 1 0.75,30.4 9.4659,9.4659 0 0 1 10,20.75 9.4659,9.4659 0 0 1 19.25,30.4 Z"
         inkscape:connector-curvature="0"
         style="fill:#4264fb;stroke:#314ccd;stroke-width:0.5" />
    </g>
  </g>
  <rect
     width="20"
     height="48"
     id="rect10"
     x="0"
     y="-20"
     style="fill:none" />
</svg>
